/* XPM */
static char *_9a2c301256946d5857bbdb93d8bd131QRrTLugfHcMeis6A[] = {
/* columns rows colors chars-per-pixel */
"64 64 56 1 ",
"  c #020202",
". c #040303",
"X c #060606",
"o c #070707",
"O c #080707",
"+ c #0B0A0A",
"@ c #0D0C0C",
"# c #111010",
"$ c #141212",
"% c #171616",
"& c #181818",
"* c #1B1919",
"= c #1B1B1B",
"- c #1D1C1C",
"; c #330F0F",
": c #211F1F",
"> c #14032D",
", c #262323",
"< c #272727",
"1 c #282626",
"2 c #282727",
"3 c #2E2B2B",
"4 c #2E2C2C",
"5 c #312E2E",
"6 c #323131",
"7 c #373737",
"8 c #383737",
"9 c #3C3B3B",
"0 c #3F3C3C",
"q c #403E3E",
"w c #424040",
"e c #444343",
"r c #474646",
"t c #4A4747",
"y c #4A4848",
"u c #4E4B4B",
"i c #4F4C4C",
"p c #504B4B",
"a c #524F4F",
"s c #565252",
"d c #565353",
"f c #585454",
"g c #5A5757",
"h c #5E5757",
"j c #5D5959",
"k c #605B5B",
"l c #635E5E",
"z c #645F5F",
"x c #656060",
"c c #676161",
"v c #686363",
"b c #6A6464",
"n c #6B6464",
"m c #6A6565",
"M c #6B6565",
"N c #F2EB00",
/* pixels */
">>>>>>>>>>>>>>>>>>>>>>>>>>>>>>>>>>>>>>>>>>>>>>>>>>>>>>>>>>>>>>>>",
">>>>>>>>>>>>>>>>>>>>>>>>>>>>>>>>>>>>>>>>>>>>>>>>>>>>>>>>>>>>>>>>",
">>>>>>>>>>>>>>>>>>>>>>>>>>>>>>>>>>>>>>>>>>>>>>>>>>>>>>>>>>>>>>>>",
">>>>>>>>>>>>>>>>>>>>>>>>>>>>>>>>>>>>>>>>>>>>>>>>>>>>>>>>>>>>>>>>",
">>>>>>>>>>>>>>>>>>>>>>>>>>>>>>>>>>>>>>>>>>>>>>>>>>>>>>>>>>>>>>>>",
">>>>>>>>>>>>>>>>>>>>>>>>>>>>>>>>>>>>>>>>>>>>>>>>>>>>>>>>>>>>>>>>",
">>>>>>>>>>>>>>>>>>>>>>>>>>>>>>>>>>>>>>>>>>>>>>>>>>>>>>>>>>>>>>>>",
">>>>>>>>>>>>>>>>>>>>>>>>>>>>>>>>>>>>>>>>>>>>>>>>>>>>>>>>>>>>>>>>",
">>>>>>>>>>>>>>>>>>>>>>>>>>>>>>>>>>>>>>>>>>>>>>>>>>>>>>>>>>>>>>>>",
">>>>>>>>>>>>>>>>>>>>>>>>>>>>>>>>>>>>>>>>>>>>>>>>>>>>>>>>>>>>>>>>",
">>>>>>>>>>>>>>>>>>>>>>>>>>>>>>>>>>>>>>>>>>>>>>>>>>>>>>>>>>>>>>>>",
">>>>>>>>>>>>>>>>>>>>>>>>>>>>>>>>>>>>>>>>>>>>>>>>>>>>>>>>>>>>>>>>",
">>>>>>>>>>>>>>>>>>>>>>>>>>>>>>>>>>>>>>>>>>>>>>>>>>>>>>>>>>>>>>>>",
">>>>>>>>>>>>wgbbbbbbbb0o=wwwgbbbbbbbbbb9 9bbbbb>>>>>>>>>>>>>>>>>",
">>>>>>>>>>>qwgbcccMbbbwo&rrrgbbbccbbbbb0 7bccbb>>>>>>>>>>>>>>>>>",
">>>>>>>>>>>qwgcddvMbb=&&<&&&&&=&&&%%&&b8 9vjilb>>>>>>>>>>>>>>>>>",
">>>>>>>>>>>qwgcaulbb-&&&&&&&&&&&&&&&&%%0 7cuejc>>>>>>>>>>>>>>>>>",
">>>>>>>>>>>qwgvzlcbb&X;;;;X;;;;o;;;;X;%9 0baejb>>>>>>>>>>>>>>>>>",
">>>>>>>>>>>55eppppa%%X;;;;X;;;;o;;;;+;&& ,a06ea>>>>>>>>>>>>>>>>>",
">>>>>>>>>>>+@#$$$$#-#X;;;;+;;;;X;;;;X;#& @$@+##>>>>>>>>>>>>>>>>>",
">>>>>>>>>>>:::-,&+X&;X;;;;X;;;;o;;;;o;;%,%,%%&,>>>>>>>>>>>>>>>>>",
">>>>>>>>>>>hjhjju%%&;+;;;;X;;;;o;;;;o;;=%%hw0sg>>>>>>>>>>>>>>>>>",
">>>>>>>>>>>jgzMMd%-%;X;;;;o;;;;o;;;;o;;&&&cdqjb>>>>>>>>>>>>>>>>>",
">>>>>>>>>>>qehMMf&&;;X;;;;o;;;;o;;;;o;;;&%cutjb>>>>>>>>>>>>>>>>>",
">>>>>>>>>>>ddlbbd%*;;X;;;;o;;;;o;;;;X;;;&&vjdvb>>>>>>>>>>>>>>>>>",
">>>>>>>>>>>bbbbbd*-;;X;;;;o;;;;o;;;;+;;;&&bbnvb>>>>>>>>>>>>>>>>>",
">>>>>>>>>>>34444,&;;;o;;;;o;;;;o;;;;X;;;;%44344>>>>>>>>>>>>>>>>>",
">>>>>>>>>>>XXXXX &;;;o;;;;o;;;;o;;;;+;;;;*XXXOX>>>>>>>>>>>>>>>>>",
">>>>>>>>>>>qqw052%55;X;;;;o;;;;o;;;;X;;;;%qeqqe>>>>>>>>>>>>>>>>>",
">>>>>>>>>>>ccbzar%53;o;;;;o;;;;o;;;;X;;;;%Mvvbv>>>>>>>>>>>>>>>>>",
">>>>>>>>>>>uijcld%;;;o;;;;o;;;;o;;;;X;;;;%vdakb>>>>>>>>>>>>>>>>>",
">>>>>>>>>>>ryjbbc%;;;o;;;;o;;;;o;;;;+;;;;&vdukb>>>>>>>>>>>>>>>>>",
">>>>>>>>>>>klcbbc=;;;o;;;;o;;;;o;;;;X;;;;%bzkvb>>>>>>>>>>>>>>>>>",
">>>>>>>>>>>auuusi=;;;o;;;;o;;;;o;;N;XN;;;%iuppa>>>>>>>>>>>>>>>>>",
">>>>>>>>>>>$#####-;;;o;;;;o;;;;o;;;NN;;;;&$#$$$>>>>>>>>>>>>>>>>>",
">>>>>>>>>>>%%$%&&&;;;o;;;;o;;;;o;;;NN;;;;& %:::>>>>>>>>>>>>>>>>>",
">>>>>>>>>>>8780sy%;;;o;;;;o;;;;o;;N;;N;;;&X7jjj>>>>>>>>>>>>>>>>>",
">>>>>>>>>>>q0yslf%;;;o;;;;o;;;;o;;N;;N;;;&X0bjg>>>>>>>>>>>>>>>>>",
">>>>>>>>>>>qqgbbf&;;;o;;;;o;;;;o;;;NN;;;;&Xwbuw>>>>>>>>>>>>>>>>>",
">>>>>>>>>>>qwgbbd&;;;o;;;;o;;;;o;;;;+;;;;&X0chf>>>>>>>>>>>>>>>>>",
">>>>>>>>>>>qwgbbd%;;;O;;;;o;;;;o;;;;o;;;;%X0bbb>>>>>>>>>>>>>>>>>",
">>>>>>>>>>>&-<44,%;;;O;;;;o;;;;o;;;;o;;;;=X-444>>>>>>>>>>>>>>>>>",
">>>>>>>>>>>+XX.o &;;;+;;;;X;;;;X;;;;o;;;;& XX +>>>>>>>>>>>>>>>>>",
">>>>>>>>>>>,,,,23%65;X;;;;o;;;;X;;;;o;;;;&2,<,,>>>>>>>>>>>>>>>>>",
">>>>>>>>>>>yeewqr&55;X;;;;X;;;;X;;;;X;;;;&trwry>>>>>>>>>>>>>>>>>",
">>>>>>>>>>>jjjgtr&;;;X;;;;X;;;;O;;;;X;;;;%jjjgj>>>>>>>>>>>>>>>>>",
">>>>>>>>>>>Mbbcsi&;;;o;;;;X;;;;+;;;;X;;;;&MbvMb>>>>>>>>>>>>>>>>>",
">>>>>>>>>>>bbbcll&;;;X;;;;+;;;;X;;;;X;;;;*bbbMb>>>>>>>>>>>>>>>>>",
">>>>>>>>>>>>vMvnv*;;;O;;;;O;;;;X;;;;O;;;;%nnMMb>>>>>>>>>>>>>>>>>",
">>>>>>>>>>>>>>>>>>>>>>>>>>>>>>>>>>>>>>>>>*>>>>>>>>>>>>>>>>>>>>>>",
">>>>>>>>>>>>>>>>>>>>>>>>>>>>>>>>>>>>>>>>>>>>>>>>>>>>>>>>>>>>>>>>",
">>>>>>>>>>>>>>>>>>>>>>>>>>>>>>>>>>>>>>>>>>>>>>>>>>>>>>>>>>>>>>>>",
">>>>>>>>>>>>>>>>>>>>>>>>>>>>>>>>>>>>>>>>>>>>>>>>>>>>>>>>>>>>>>>>",
">>>>>>>>>>>>>>>>>>>>>>>>>>>>>>>>>>>>>>>>>>>>>>>>>>>>>>>>>>>>>>>>",
">>>>>>>>>>>>>>>>>>>>>>>>>>>>>>>>>>>>>>>>>>>>>>>>>>>>>>>>>>>>>>>>",
">>>>>>>>>>>>>>>>>>>>>>>>>>>>>>>>>>>>>>>>>>>>>>>>>>>>>>>>>>>>>>>>",
">>>>>>>>>>>>>>>>>>>>>>>>>>>>>>>>>>>>>>>>>>>>>>>>>>>>>>>>>>>>>>>>",
">>>>>>>>>>>>>>>>>>>>>>>>>>>>>>>>>>>>>>>>>>>>>>>>>>>>>>>>>>>>>>>>",
">>>>>>>>>>>>>>>>>>>>>>>>>>>>>>>>>>>>>>>>>>>>>>>>>>>>>>>>>>>>>>>>",
">>>>>>>>>>>>>>>>>>>>>>>>>>>>>>>>>>>>>>>>>>>>>>>>>>>>>>>>>>>>>>>>",
">>>>>>>>>>>>>>>>>>>>>>>>>>>>>>>>>>>>>>>>>>>>>>>>>>>>>>>>>>>>>>>>",
">>>>>>>>>>>>>>>>>>>>>>>>>>>>>>>>>>>>>>>>>>>>>>>>>>>>>>>>>>>>>>>>",
">>>>>>>>>>>>>>>>>>>>>>>>>>>>>>>>>>>>>>>>>>>>>>>>>>>>>>>>>>>>>>>>",
">>>>>>>>>>>>>>>>>>>>>>>>>>>>>>>>>>>>>>>>>>>>>>>>>>>>>>>>>>>>>>>>"
};
