/* XPM */
static char *_2ca13b5020146bcda74a4522b16b7b9hRKsR7rBHTFuDE3R[] = {
/* columns rows colors chars-per-pixel */
"64 64 127 2 ",
"   c #14032D",
".  c #776B3D",
"X  c #74693E",
"o  c #756B3E",
"O  c #756C3E",
"+  c #786F3E",
"@  c #79703E",
"#  c #88773A",
"$  c #8B7939",
"%  c #8C7A39",
"&  c #8D7D3B",
"*  c #927D37",
"=  c #937E36",
"-  c #9D8533",
";  c #998235",
":  c #9A8335",
">  c #9E8634",
",  c #97853B",
"<  c #91883D",
"1  c #958C3D",
"2  c #9D8B3B",
"3  c #9E8B3B",
"4  c #9E8C3B",
"5  c #9F973D",
"6  c #AB8F2F",
"7  c #B1942D",
"8  c #A18B37",
"9  c #A88D30",
"0  c #AC9232",
"q  c #AE9636",
"w  c #A1933B",
"e  c #A0983D",
"r  c #A69D3D",
"t  c #B79F38",
"y  c #A9A23D",
"u  c #ADA63D",
"i  c #B0A93D",
"p  c #BAB23C",
"a  c #BDB53C",
"s  c #C9A51F",
"d  c #CEA81D",
"f  c #D1AD1F",
"g  c #DBB61F",
"h  c #DDB81C",
"j  c #DDB81E",
"k  c #E1BB1A",
"l  c #E3BE18",
"z  c #E3BD1B",
"x  c #E3BE1E",
"c  c #C5A322",
"v  c #C9A623",
"b  c #C3A329",
"n  c #CAAA2B",
"m  c #D2AE21",
"M  c #DBB823",
"N  c #DCB822",
"B  c #DCB925",
"V  c #D1B12A",
"C  c #DDBB2A",
"Z  c #DFBF2F",
"A  c #CCAF32",
"S  c #CDB135",
"D  c #C6BE3C",
"F  c #D0B435",
"G  c #D1B635",
"H  c #D7B831",
"J  c #E8CA1C",
"K  c #E8CA1D",
"L  c #E8CB1D",
"P  c #D6C237",
"I  c #D6CC3A",
"U  c #DCD13A",
"Y  c #DFD63B",
"T  c #DFD73B",
"R  c #E5C222",
"E  c #E4C026",
"W  c #E8CA20",
"Q  c #E9CB23",
"!  c #E6C329",
"~  c #E6C429",
"^  c #E5C42B",
"/  c #E7C52A",
"(  c #E7C62E",
")  c #E8C72E",
"_  c #E8C929",
"`  c #E9CB2E",
"'  c #EDD525",
"]  c #ECD129",
"[  c #E3C431",
"{  c #E7C730",
"}  c #E8C631",
"|  c #E7C831",
" . c #E9CA32",
".. c #EACB32",
"X. c #EBCF32",
"o. c #ECD232",
"O. c #EDD233",
"+. c #EED533",
"@. c #EDD434",
"#. c #EDD534",
"$. c #EFD734",
"%. c #EBDA37",
"&. c #EDDC37",
"*. c #E0D63A",
"=. c #E3DB3B",
"-. c #E4DC3B",
";. c #E9DE39",
":. c #F0D934",
">. c #F2DE35",
",. c #E8E03B",
"<. c #EFE138",
"1. c #F5E431",
"2. c #F4E236",
"3. c #F5E336",
"4. c #F5E436",
"5. c #F7E931",
"6. c #F7EA37",
"7. c #F8EB33",
"8. c #F8EA37",
"9. c #FAEF35",
"0. c #F3E538",
"q. c #F3E638",
"w. c #F8EB38",
"e. c #FAEE38",
"r. c #FBF038",
"t. c #FFF73A",
"y. c #FFF93A",
/* pixels */
"                                                                                                                                ",
"                                                                                                                                ",
"                                                                                                                                ",
"                                                                                                                                ",
"                                                                                                                                ",
"                                                                                                                                ",
"                                                                                                                                ",
"                                                                                                                                ",
"                                                                                                                                ",
"                                                                                                                                ",
"                                                                                                                                ",
"                                                                                                                                ",
"                                                                                                                                ",
"                                                                                                                                ",
"                                                                                                                                ",
"                                                      O O O o o O O O O O                                                       ",
"                                                    e y y y y y y y y y y e                                                     ",
"                                              @ + 1 D Y -.=.=.=.=.-.-.-.*.D 1 @ @                                               ",
"                                            5 u i a U 0.6.w.6.8.6.6.w.8.0.U a i u 5                                             ",
"                                          < a Y ;.;.%.#.#.O.O.:.+.O.#.#.#.%.;.;.Y a <                                           ",
"                                        5 p I <.w.3.#...{ X.#.>.:.#...} ..O.0.8.<.I p 5                                         ",
"                                      < p *.&.#.#.#.X...{ O.4.e.r.4.#.} { O.#.O.#.&.*.p <                                       ",
"                                    e a I &.:.X.O.#.#...} #.w.t.t.8.#.} ..O.:.#.X.#.&.I a 5                                     ",
"                                  @ u Y <.+...X.>.e.#.....O.w.t.t.8.#.} ..:.w.>.X.X.#.<.Y i @                                   ",
"                                  O i -.8.O.} X.3.e.>...} #.w.t.t.6.#.} ..>.e.3.X.{ O.6.=.i O                                   ",
"                                  < a ;.3.O...O.3.e.>...} #.w.t.t.6.#.{ ..>.e.3.#...O.2.,.a 1                                   ",
"                                w P U %.#.X.#.4.r.e.>...} O.w.t.t.6.O.{ ..>.r.r.2.#.O.#.%.U P w                                 ",
"                              O y Y 0.#.....>.r.y.e.>.X.{ #.w.t.t.6.O.....>.r.t.e.>.o.{ #.0.Y y O                               ",
"                              O y -.w.#.{ ..>.e.y.t.>.o.{ O.6.t.y.6.O.} ..3.t.y.y.>...{ #.6.Y y O                               ",
"                              o r Y 3.#.{ X.>.t.y.e.0.#.#.>.e.t.t.e.>.#.#.0.e.y.e.3...{ #.<.Y r o                               ",
"                              O w P O.X.{ ..3.e.y.t.e.w.w.9.e.t.t.e.9.6.w.9.y.t.r.3...{ ..#.P w o                               ",
"                              o 4 G } ..{ ..+.1.5.5.5.5.1.8.y.t.y.y.7.7.1.5.5.1.1.+.X.{ ..} G 2 o                               ",
"                              o 3 G { } }  ._ K K K K K K ' 5.t.t.5.' K K L L L Q _ } ......S 3 o                               ",
"                              o 3 A { ....^ ! x k k k k h Q 5.t.t.5.Q k k k k k x ^ ` { { { G 3 o                               ",
"                              o 4 G { ..{ ..{ ! ) ! ! ! ~ ` 0.t.t.3.` ! ! ^ ~ ~ ! ^ } } ..( S 3 o                               ",
"                              o 3 G ..} { } { { { } } ) X.%.w.t.t.w.#.X.{ { { { } ..}  .} ..F 3 o                               ",
"                              o 3 S [ } ^  ...} ....{ { } #.w.t.t.6.#.{ ..} }  ...{ { } { { S 3 o                               ",
"                                , t A Z ! ....{ { { ....| O.w.t.t.e.O...{ { { } ....{ ! C A t ,                                 ",
"                                  & 0 m x ^ ..{ } { { { ..#.8.t.t.6.#.} } { }  .^ } ! x m 9 &                                   ",
"                                  o - d x ! { ..} { } } { #.6.t.y.6.#. .{ ..| } } ..) k m 8 o                                   ",
"                                  o - c g ! { { } ......) O.3.9.8.4.O.| } { ....{ } ! N c - .                                   ",
"                                    = 6 b B ! ^ ..} } } { ..] ' ' ] ` | ..{ { { { ! N b 9 =                                     ",
"                                      # 9 c B ! ) ! ^ ..{ ^ R k K R ^ ..{ } ^ ` ! N v 9 #                                       ",
"                                        = 9 b N x x ! ) { ` ! ! E E  .^ ......E M b 9 *                                         ",
"                                          # 9 c d f N ! ! ! ! ! E ! ! ! ! Z H V v 9 #                                           ",
"                                            = - 8 9 v j k k k k k k k k j n q 8 - =                                             ",
"                                              O O % 7 c v v v v v s v s c 7 $ O o                                               ",
"                                                    = ; ; ; ; ; ; ; ; - ; =                                                     ",
"                                                      o o o o X o o o o o                                                       ",
"                                                                                                                                ",
"                                                                                                                                ",
"                                                                                                                                ",
"                                                                                                                                ",
"                                                                                                                                ",
"                                                                                                                                ",
"                                                                                                                                ",
"                                                                                                                                ",
"                                                                                                                                ",
"                                                                                                                                ",
"                                                                                                                                ",
"                                                                                                                                ",
"                                                                                                                                ",
"                                                                                                                                ",
"                                                                                                                                "
};
