/* XPM */
static char *_797fbf5f5d74df9ae001447d1411c75TkPXz8rqgPRsuh1j[] = {
/* columns rows colors chars-per-pixel */
"64 64 3 1 ",
"  c #14032D",
". c #F6D7D7",
"X c white",
/* pixels */
"                                                                ",
"                                                                ",
"                                                                ",
"                                                                ",
"                                                                ",
"                                                                ",
"                                                                ",
"                                                                ",
"                                                                ",
"                                                                ",
"                                                                ",
"                                                                ",
"                                                                ",
"                                                                ",
"                                                                ",
"                                                                ",
"                                                                ",
"                                                                ",
"                                                                ",
"                                                                ",
"                          .                  .                  ",
"                         ..                . .                  ",
"                          .                ...                  ",
"                          .               ..                    ",
"                         ..  ..            .                    ",
"                         .  .....  ....    .                    ",
"                         ...............   .                    ",
"                           .................                    ",
"                           .............                        ",
"                          ..............                        ",
"                          ..............                        ",
"                          ...............                       ",
"                          .XX............                       ",
"                         .XX..............                      ",
"                       ...XX..............                      ",
"                      .....X..............                      ",
"                      .....X..............                      ",
"                      .....X..............                      ",
"                       ... ...............                      ",
"                             ............                       ",
"                              ..........                        ",
"                               .    ...                         ",
"                                .    .                          ",
"                                                                ",
"                                                                ",
"                                                                ",
"                                                                ",
"                                                                ",
"                                                                ",
"                                                                ",
"                                                                ",
"                                                                ",
"                                                                ",
"                                                                ",
"                                                                ",
"                                                                ",
"                                                                ",
"                                                                ",
"                                                                ",
"                                                                ",
"                                                                ",
"                                                                ",
"                                                                ",
"                                                                "
};
