/* XPM */
static char *_cccdaa0d335496c8c99175757f2b0d956BKvBGX75gEX539[] = {
/* columns rows colors chars-per-pixel */
"64 64 10 1 ",
"  c black",
". c #05090F",
"X c #0C0E17",
"o c #14032D",
"O c #0F1A25",
"+ c #1D303B",
"@ c #552F87",
"# c #9F51F7",
"$ c #DC8BF7",
"% c #F7CEF7",
/* pixels */
"oooooooooooooooooooooooooooooooooooooooooooooooooooooooooooooooo",
"oooooooooooooooooooooooooooooooooooooooooooooooooooooooooooooooo",
"oooooooooooooooooooooooooooooooooooooooooooooooooooooooooooooooo",
"oooooooooooooooooooooooooooooooooooooooooooooooooooooooooooooooo",
"oooooooooooooooooooooooooooooooooooooooooooooooooooooooooooooooo",
"oooooooooooooooooooooooooooooooooooooooooooooooooooooooooooooooo",
"oooooooooooooooooooooooooooooooooooooooooooooooooooooooooooooooo",
"oooooooooooooooooooooooooooooooooooooooooooooooooooooooooooooooo",
"oooooooooooooooooooooooooooooooooooooooooooooooooooooooooooooooo",
"oooooooooooooooooooooooooooooooooooooooooooooooooooooooooooooooo",
"oooooooooooooooooooooooooooooooooooooooooooooooooooooooooooooooo",
"oooooooooooooooooooooooooooooooooooooooooooooooooooooooooooooooo",
"oooooooooooooooooooooooooooooooooooooooooooooooooooooooooooooooo",
"oooooooooooooooooooooooooooooooooooooooooooooooooooooooooooooooo",
"oooooooooooooooooooooooooooooooooooooooooooooooooooooooooooooooo",
"oooooooooooooooooooooooooooooooooooooooooooooooooooooooooooooooo",
"oooooooooooooooooooooooooooooo.oooo.oooooooooooooooooooooooooooo",
"ooooooooooooooooooooooooooooooOOOoo.Oooooooooooooooooooooooooooo",
"ooooooooooooooooooooooooooooooo+OOooXOoooooooooooooooooooooooooo",
"oooooooooooooooooooooooooooooooo+OooXOoooooooooooooooooooooooooo",
"oooooooooooooooooooooooooooooooo+OoOXOoooooooooooooooooooooooooo",
"ooooooooooooooooooooooooooooooooOO++Oooooooooooooooooooooooooooo",
"ooooooooooooooooooooooooooooooo.OO++Oooooooooooooooooooooooooooo",
"ooooooooooooooooooooooooooooooo.OO#+#ooooooooooooooooooooooooooo",
"oooooooooooooooooooooooooooo+++OOO++Oooooooooooooooooooooooooooo",
"oooooooooooooooooooooooooooOO+++.O++oooooooooooooooooooooooooooo",
"ooooooooooooooooooooooooooO++O+OO..Ooooooooooooooooooooooooooooo",
"oooooooooooooooooooooooooo+OO.O.OOO.oooooooooooooooooooooooooooo",
"ooooooooooooooooooooooooO+O++O.O..OOOooooooooooooooooooooooooooo",
"ooooooooooooooooooooooo++O+++O..OOO . oooooooooooooooooooooooooo",
"oooooooooooooooooooooooO+Ooooo++O+oO .  oooooooooooooooooooooooo",
"ooooooooooooooooooooooOO+oooooOO+O.o.O.. ooooooooooooooooooooooo",
"oooooooooooooooooooooO++Oooooo++O.oooO. ..Oooooooooooooooooooooo",
"oooooooooooooooooooo#O++ooooo##.+O@ooooo . ooooooooooooooooooooo",
"oooooooooooooooooooo%$%#ooooo++##@OOoooo. .ooooooooooooooooooooo",
"ooooooooooooooooooo#%#%ooooO.++++OOOO..ooooooooooooooooooooooooo",
"ooooooooooooooooooo$#%oooo++O++++OOOOO..oooooooooooooooooooooooo",
"oooooooooooooooooo#%#%oooo+O.+++oooOO  @oooooooooooooooooooooooo",
"oooooooooooooooooo$#%oooooO.OOOooooo    #ooooooooooooooooooooooo",
"ooooooooooooooooo#%#%oooo...++ooooooo   @ooooooooooooooooooooooo",
"ooooooooooooooooo%#%ooooOO@++Ooooooooo.. ooooooooooooooooooooooo",
"oooooooooooooooo$%#%ooooO#.OOooooooooo.. ooooooooooooooooooooooo",
"oooooooooooooooo$%%ooooo@..oooooooooooo  ooooooooooooooooooooooo",
"ooooooooooooooo##%#oooo..oooooooooooooo ..oooooooooooooooooooooo",
"ooooooooooooooo$%%ooooo..ooooooooooooooo  oooooooooooooooooooooo",
"oooooooooooooooo%#ooooo.Ooooooooooooooooo oooooooooooooooooooooo",
"ooooooooooooooooooooooO+.oooooooooooooooo..ooooooooooooooooooooo",
"oooooooooooooooooooooo+.oooooooooooooooooooooooooooooooooooooooo",
"ooooooooooooooooooooooOOoooooooooooooooooooooooooooooooooooooooo",
"oooooooooooooooooooooooooooooooooooooooooooooooooooooooooooooooo",
"oooooooooooooooooooooooooooooooooooooooooooooooooooooooooooooooo",
"oooooooooooooooooooooooooooooooooooooooooooooooooooooooooooooooo",
"oooooooooooooooooooooooooooooooooooooooooooooooooooooooooooooooo",
"oooooooooooooooooooooooooooooooooooooooooooooooooooooooooooooooo",
"oooooooooooooooooooooooooooooooooooooooooooooooooooooooooooooooo",
"oooooooooooooooooooooooooooooooooooooooooooooooooooooooooooooooo",
"oooooooooooooooooooooooooooooooooooooooooooooooooooooooooooooooo",
"oooooooooooooooooooooooooooooooooooooooooooooooooooooooooooooooo",
"oooooooooooooooooooooooooooooooooooooooooooooooooooooooooooooooo",
"oooooooooooooooooooooooooooooooooooooooooooooooooooooooooooooooo",
"oooooooooooooooooooooooooooooooooooooooooooooooooooooooooooooooo",
"oooooooooooooooooooooooooooooooooooooooooooooooooooooooooooooooo",
"oooooooooooooooooooooooooooooooooooooooooooooooooooooooooooooooo",
"oooooooooooooooooooooooooooooooooooooooooooooooooooooooooooooooo"
};
